/* XPM */
static char *Pixel_Palette_2017[] = {
/* columns rows colors chars-per-pixel */
"128 128 8 1 ",
"  c #36414C",
". c #603849",
"X c #FF75F0",
"o c #EFFE9B",
"O c #6CEACB",
"+ c #5B7CD8",
"@ c #00BFD6",
"# c gray20",
/* pixels */
"XXXXXXXXXXXXXXXXooooooooooooooooOOOOOOOOOOOOOOOO@@@@@@@@@@@@@@@@++++++++++++++++................                ################",
"XXXXXXXXXXXXXXXXooooooooooooooooOOOOOOOOOOOOOOOO@@@@@@@@@@@@@@@@++++++++++++++++................                ################",
"XXXXXXXXXXXXXXXXooooooooooooooooOOOOOOOOOOOOOOOO@@@@@@@@@@@@@@@@++++++++++++++++................                ################",
"XXXXXXXXXXXXXXXXooooooooooooooooOOOOOOOOOOOOOOOO@@@@@@@@@@@@@@@@++++++++++++++++................                ################",
"XXXXXXXXXXXXXXXXooooooooooooooooOOOOOOOOOOOOOOOO@@@@@@@@@@@@@@@@++++++++++++++++................                ################",
"XXXXXXXXXXXXXXXXooooooooooooooooOOOOOOOOOOOOOOOO@@@@@@@@@@@@@@@@++++++++++++++++................                ################",
"XXXXXXXXXXXXXXXXooooooooooooooooOOOOOOOOOOOOOOOO@@@@@@@@@@@@@@@@++++++++++++++++................                ################",
"XXXXXXXXXXXXXXXXooooooooooooooooOOOOOOOOOOOOOOOO@@@@@@@@@@@@@@@@++++++++++++++++................                ################",
"XXXXXXXXXXXXXXXXooooooooooooooooOOOOOOOOOOOOOOOO@@@@@@@@@@@@@@@@++++++++++++++++................                ################",
"XXXXXXXXXXXXXXXXooooooooooooooooOOOOOOOOOOOOOOOO@@@@@@@@@@@@@@@@++++++++++++++++................                ################",
"XXXXXXXXXXXXXXXXooooooooooooooooOOOOOOOOOOOOOOOO@@@@@@@@@@@@@@@@++++++++++++++++................                ################",
"XXXXXXXXXXXXXXXXooooooooooooooooOOOOOOOOOOOOOOOO@@@@@@@@@@@@@@@@++++++++++++++++................                ################",
"XXXXXXXXXXXXXXXXooooooooooooooooOOOOOOOOOOOOOOOO@@@@@@@@@@@@@@@@++++++++++++++++................                ################",
"XXXXXXXXXXXXXXXXooooooooooooooooOOOOOOOOOOOOOOOO@@@@@@@@@@@@@@@@++++++++++++++++................                ################",
"XXXXXXXXXXXXXXXXooooooooooooooooOOOOOOOOOOOOOOOO@@@@@@@@@@@@@@@@++++++++++++++++................                ################",
"XXXXXXXXXXXXXXXXooooooooooooooooOOOOOOOOOOOOOOOO@@@@@@@@@@@@@@@@++++++++++++++++................                ################",
"XXXXXXXXXXXXXXXXooooooooooooooooOOOOOOOOOOOOOOOO@@@@@@@@@@@@@@@@++++++++++++++++................                ################",
"XXXXXXXXXXXXXXXXooooooooooooooooOOOOOOOOOOOOOOOO@@@@@@@@@@@@@@@@++++++++++++++++................                ################",
"XXXXXXXXXXXXXXXXooooooooooooooooOOOOOOOOOOOOOOOO@@@@@@@@@@@@@@@@++++++++++++++++................                ################",
"XXXXXXXXXXXXXXXXooooooooooooooooOOOOOOOOOOOOOOOO@@@@@@@@@@@@@@@@++++++++++++++++................                ################",
"XXXXXXXXXXXXXXXXooooooooooooooooOOOOOOOOOOOOOOOO@@@@@@@@@@@@@@@@++++++++++++++++................                ################",
"XXXXXXXXXXXXXXXXooooooooooooooooOOOOOOOOOOOOOOOO@@@@@@@@@@@@@@@@++++++++++++++++................                ################",
"XXXXXXXXXXXXXXXXooooooooooooooooOOOOOOOOOOOOOOOO@@@@@@@@@@@@@@@@++++++++++++++++................                ################",
"XXXXXXXXXXXXXXXXooooooooooooooooOOOOOOOOOOOOOOOO@@@@@@@@@@@@@@@@++++++++++++++++................                ################",
"XXXXXXXXXXXXXXXXooooooooooooooooOOOOOOOOOOOOOOOO@@@@@@@@@@@@@@@@++++++++++++++++................                ################",
"XXXXXXXXXXXXXXXXooooooooooooooooOOOOOOOOOOOOOOOO@@@@@@@@@@@@@@@@++++++++++++++++................                ################",
"XXXXXXXXXXXXXXXXooooooooooooooooOOOOOOOOOOOOOOOO@@@@@@@@@@@@@@@@++++++++++++++++................                ################",
"XXXXXXXXXXXXXXXXooooooooooooooooOOOOOOOOOOOOOOOO@@@@@@@@@@@@@@@@++++++++++++++++................                ################",
"XXXXXXXXXXXXXXXXooooooooooooooooOOOOOOOOOOOOOOOO@@@@@@@@@@@@@@@@++++++++++++++++................                ################",
"XXXXXXXXXXXXXXXXooooooooooooooooOOOOOOOOOOOOOOOO@@@@@@@@@@@@@@@@++++++++++++++++................                ################",
"XXXXXXXXXXXXXXXXooooooooooooooooOOOOOOOOOOOOOOOO@@@@@@@@@@@@@@@@++++++++++++++++................                ################",
"XXXXXXXXXXXXXXXXooooooooooooooooOOOOOOOOOOOOOOOO@@@@@@@@@@@@@@@@++++++++++++++++................                ################",
"XXXXXXXXXXXXXXXXooooooooooooooooOOOOOOOOOOOOOOOO@@@@@@@@@@@@@@@@++++++++++++++++................                ################",
"XXXXXXXXXXXXXXXXooooooooooooooooOOOOOOOOOOOOOOOO@@@@@@@@@@@@@@@@++++++++++++++++................                ################",
"XXXXXXXXXXXXXXXXooooooooooooooooOOOOOOOOOOOOOOOO@@@@@@@@@@@@@@@@++++++++++++++++................                ################",
"XXXXXXXXXXXXXXXXooooooooooooooooOOOOOOOOOOOOOOOO@@@@@@@@@@@@@@@@++++++++++++++++................                ################",
"XXXXXXXXXXXXXXXXooooooooooooooooOOOOOOOOOOOOOOOO@@@@@@@@@@@@@@@@++++++++++++++++................                ################",
"XXXXXXXXXXXXXXXXooooooooooooooooOOOOOOOOOOOOOOOO@@@@@@@@@@@@@@@@++++++++++++++++................                ################",
"XXXXXXXXXXXXXXXXooooooooooooooooOOOOOOOOOOOOOOOO@@@@@@@@@@@@@@@@++++++++++++++++................                ################",
"XXXXXXXXXXXXXXXXooooooooooooooooOOOOOOOOOOOOOOOO@@@@@@@@@@@@@@@@++++++++++++++++................                ################",
"XXXXXXXXXXXXXXXXooooooooooooooooOOOOOOOOOOOOOOOO@@@@@@@@@@@@@@@@++++++++++++++++................                ################",
"XXXXXXXXXXXXXXXXooooooooooooooooOOOOOOOOOOOOOOOO@@@@@@@@@@@@@@@@++++++++++++++++................                ################",
"XXXXXXXXXXXXXXXXooooooooooooooooOOOOOOOOOOOOOOOO@@@@@@@@@@@@@@@@++++++++++++++++................                ################",
"XXXXXXXXXXXXXXXXooooooooooooooooOOOOOOOOOOOOOOOO@@@@@@@@@@@@@@@@++++++++++++++++................                ################",
"XXXXXXXXXXXXXXXXooooooooooooooooOOOOOOOOOOOOOOOO@@@@@@@@@@@@@@@@++++++++++++++++................                ################",
"XXXXXXXXXXXXXXXXooooooooooooooooOOOOOOOOOOOOOOOO@@@@@@@@@@@@@@@@++++++++++++++++................                ################",
"XXXXXXXXXXXXXXXXooooooooooooooooOOOOOOOOOOOOOOOO@@@@@@@@@@@@@@@@++++++++++++++++................                ################",
"XXXXXXXXXXXXXXXXooooooooooooooooOOOOOOOOOOOOOOOO@@@@@@@@@@@@@@@@++++++++++++++++................                ################",
"XXXXXXXXXXXXXXXXooooooooooooooooOOOOOOOOOOOOOOOO@@@@@@@@@@@@@@@@++++++++++++++++................                ################",
"XXXXXXXXXXXXXXXXooooooooooooooooOOOOOOOOOOOOOOOO@@@@@@@@@@@@@@@@++++++++++++++++................                ################",
"XXXXXXXXXXXXXXXXooooooooooooooooOOOOOOOOOOOOOOOO@@@@@@@@@@@@@@@@++++++++++++++++................                ################",
"XXXXXXXXXXXXXXXXooooooooooooooooOOOOOOOOOOOOOOOO@@@@@@@@@@@@@@@@++++++++++++++++................                ################",
"XXXXXXXXXXXXXXXXooooooooooooooooOOOOOOOOOOOOOOOO@@@@@@@@@@@@@@@@++++++++++++++++................                ################",
"XXXXXXXXXXXXXXXXooooooooooooooooOOOOOOOOOOOOOOOO@@@@@@@@@@@@@@@@++++++++++++++++................                ################",
"XXXXXXXXXXXXXXXXooooooooooooooooOOOOOOOOOOOOOOOO@@@@@@@@@@@@@@@@++++++++++++++++................                ################",
"XXXXXXXXXXXXXXXXooooooooooooooooOOOOOOOOOOOOOOOO@@@@@@@@@@@@@@@@++++++++++++++++................                ################",
"XXXXXXXXXXXXXXXXooooooooooooooooOOOOOOOOOOOOOOOO@@@@@@@@@@@@@@@@++++++++++++++++................                ################",
"XXXXXXXXXXXXXXXXooooooooooooooooOOOOOOOOOOOOOOOO@@@@@@@@@@@@@@@@++++++++++++++++................                ################",
"XXXXXXXXXXXXXXXXooooooooooooooooOOOOOOOOOOOOOOOO@@@@@@@@@@@@@@@@++++++++++++++++................                ################",
"XXXXXXXXXXXXXXXXooooooooooooooooOOOOOOOOOOOOOOOO@@@@@@@@@@@@@@@@++++++++++++++++................                ################",
"XXXXXXXXXXXXXXXXooooooooooooooooOOOOOOOOOOOOOOOO@@@@@@@@@@@@@@@@++++++++++++++++................                ################",
"XXXXXXXXXXXXXXXXooooooooooooooooOOOOOOOOOOOOOOOO@@@@@@@@@@@@@@@@++++++++++++++++................                ################",
"XXXXXXXXXXXXXXXXooooooooooooooooOOOOOOOOOOOOOOOO@@@@@@@@@@@@@@@@++++++++++++++++................                ################",
"XXXXXXXXXXXXXXXXooooooooooooooooOOOOOOOOOOOOOOOO@@@@@@@@@@@@@@@@++++++++++++++++................                ################",
"XXXXXXXXXXXXXXXXooooooooooooooooOOOOOOOOOOOOOOOO@@@@@@@@@@@@@@@@++++++++++++++++................                ################",
"XXXXXXXXXXXXXXXXooooooooooooooooOOOOOOOOOOOOOOOO@@@@@@@@@@@@@@@@++++++++++++++++................                ################",
"XXXXXXXXXXXXXXXXooooooooooooooooOOOOOOOOOOOOOOOO@@@@@@@@@@@@@@@@++++++++++++++++................                ################",
"XXXXXXXXXXXXXXXXooooooooooooooooOOOOOOOOOOOOOOOO@@@@@@@@@@@@@@@@++++++++++++++++................                ################",
"XXXXXXXXXXXXXXXXooooooooooooooooOOOOOOOOOOOOOOOO@@@@@@@@@@@@@@@@++++++++++++++++................                ################",
"XXXXXXXXXXXXXXXXooooooooooooooooOOOOOOOOOOOOOOOO@@@@@@@@@@@@@@@@++++++++++++++++................                ################",
"XXXXXXXXXXXXXXXXooooooooooooooooOOOOOOOOOOOOOOOO@@@@@@@@@@@@@@@@++++++++++++++++................                ################",
"XXXXXXXXXXXXXXXXooooooooooooooooOOOOOOOOOOOOOOOO@@@@@@@@@@@@@@@@++++++++++++++++................                ################",
"XXXXXXXXXXXXXXXXooooooooooooooooOOOOOOOOOOOOOOOO@@@@@@@@@@@@@@@@++++++++++++++++................                ################",
"XXXXXXXXXXXXXXXXooooooooooooooooOOOOOOOOOOOOOOOO@@@@@@@@@@@@@@@@++++++++++++++++................                ################",
"XXXXXXXXXXXXXXXXooooooooooooooooOOOOOOOOOOOOOOOO@@@@@@@@@@@@@@@@++++++++++++++++................                ################",
"XXXXXXXXXXXXXXXXooooooooooooooooOOOOOOOOOOOOOOOO@@@@@@@@@@@@@@@@++++++++++++++++................                ################",
"XXXXXXXXXXXXXXXXooooooooooooooooOOOOOOOOOOOOOOOO@@@@@@@@@@@@@@@@++++++++++++++++................                ################",
"XXXXXXXXXXXXXXXXooooooooooooooooOOOOOOOOOOOOOOOO@@@@@@@@@@@@@@@@++++++++++++++++................                ################",
"XXXXXXXXXXXXXXXXooooooooooooooooOOOOOOOOOOOOOOOO@@@@@@@@@@@@@@@@++++++++++++++++................                ################",
"XXXXXXXXXXXXXXXXooooooooooooooooOOOOOOOOOOOOOOOO@@@@@@@@@@@@@@@@++++++++++++++++................                ################",
"XXXXXXXXXXXXXXXXooooooooooooooooOOOOOOOOOOOOOOOO@@@@@@@@@@@@@@@@++++++++++++++++................                ################",
"XXXXXXXXXXXXXXXXooooooooooooooooOOOOOOOOOOOOOOOO@@@@@@@@@@@@@@@@++++++++++++++++................                ################",
"XXXXXXXXXXXXXXXXooooooooooooooooOOOOOOOOOOOOOOOO@@@@@@@@@@@@@@@@++++++++++++++++................                ################",
"XXXXXXXXXXXXXXXXooooooooooooooooOOOOOOOOOOOOOOOO@@@@@@@@@@@@@@@@++++++++++++++++................                ################",
"XXXXXXXXXXXXXXXXooooooooooooooooOOOOOOOOOOOOOOOO@@@@@@@@@@@@@@@@++++++++++++++++................                ################",
"XXXXXXXXXXXXXXXXooooooooooooooooOOOOOOOOOOOOOOOO@@@@@@@@@@@@@@@@++++++++++++++++................                ################",
"XXXXXXXXXXXXXXXXooooooooooooooooOOOOOOOOOOOOOOOO@@@@@@@@@@@@@@@@++++++++++++++++................                ################",
"XXXXXXXXXXXXXXXXooooooooooooooooOOOOOOOOOOOOOOOO@@@@@@@@@@@@@@@@++++++++++++++++................                ################",
"XXXXXXXXXXXXXXXXooooooooooooooooOOOOOOOOOOOOOOOO@@@@@@@@@@@@@@@@++++++++++++++++................                ################",
"XXXXXXXXXXXXXXXXooooooooooooooooOOOOOOOOOOOOOOOO@@@@@@@@@@@@@@@@++++++++++++++++................                ################",
"XXXXXXXXXXXXXXXXooooooooooooooooOOOOOOOOOOOOOOOO@@@@@@@@@@@@@@@@++++++++++++++++................                ################",
"XXXXXXXXXXXXXXXXooooooooooooooooOOOOOOOOOOOOOOOO@@@@@@@@@@@@@@@@++++++++++++++++................                ################",
"XXXXXXXXXXXXXXXXooooooooooooooooOOOOOOOOOOOOOOOO@@@@@@@@@@@@@@@@++++++++++++++++................                ################",
"XXXXXXXXXXXXXXXXooooooooooooooooOOOOOOOOOOOOOOOO@@@@@@@@@@@@@@@@++++++++++++++++................                ################",
"XXXXXXXXXXXXXXXXooooooooooooooooOOOOOOOOOOOOOOOO@@@@@@@@@@@@@@@@++++++++++++++++................                ################",
"XXXXXXXXXXXXXXXXooooooooooooooooOOOOOOOOOOOOOOOO@@@@@@@@@@@@@@@@++++++++++++++++................                ################",
"XXXXXXXXXXXXXXXXooooooooooooooooOOOOOOOOOOOOOOOO@@@@@@@@@@@@@@@@++++++++++++++++................                ################",
"XXXXXXXXXXXXXXXXooooooooooooooooOOOOOOOOOOOOOOOO@@@@@@@@@@@@@@@@++++++++++++++++................                ################",
"XXXXXXXXXXXXXXXXooooooooooooooooOOOOOOOOOOOOOOOO@@@@@@@@@@@@@@@@++++++++++++++++................                ################",
"XXXXXXXXXXXXXXXXooooooooooooooooOOOOOOOOOOOOOOOO@@@@@@@@@@@@@@@@++++++++++++++++................                ################",
"XXXXXXXXXXXXXXXXooooooooooooooooOOOOOOOOOOOOOOOO@@@@@@@@@@@@@@@@++++++++++++++++................                ################",
"XXXXXXXXXXXXXXXXooooooooooooooooOOOOOOOOOOOOOOOO@@@@@@@@@@@@@@@@++++++++++++++++................                ################",
"XXXXXXXXXXXXXXXXooooooooooooooooOOOOOOOOOOOOOOOO@@@@@@@@@@@@@@@@++++++++++++++++................                ################",
"XXXXXXXXXXXXXXXXooooooooooooooooOOOOOOOOOOOOOOOO@@@@@@@@@@@@@@@@++++++++++++++++................                ################",
"XXXXXXXXXXXXXXXXooooooooooooooooOOOOOOOOOOOOOOOO@@@@@@@@@@@@@@@@++++++++++++++++................                ################",
"XXXXXXXXXXXXXXXXooooooooooooooooOOOOOOOOOOOOOOOO@@@@@@@@@@@@@@@@++++++++++++++++................                ################",
"XXXXXXXXXXXXXXXXooooooooooooooooOOOOOOOOOOOOOOOO@@@@@@@@@@@@@@@@++++++++++++++++................                ################",
"XXXXXXXXXXXXXXXXooooooooooooooooOOOOOOOOOOOOOOOO@@@@@@@@@@@@@@@@++++++++++++++++................                ################",
"XXXXXXXXXXXXXXXXooooooooooooooooOOOOOOOOOOOOOOOO@@@@@@@@@@@@@@@@++++++++++++++++................                ################",
"XXXXXXXXXXXXXXXXooooooooooooooooOOOOOOOOOOOOOOOO@@@@@@@@@@@@@@@@++++++++++++++++................                ################",
"XXXXXXXXXXXXXXXXooooooooooooooooOOOOOOOOOOOOOOOO@@@@@@@@@@@@@@@@++++++++++++++++................                ################",
"XXXXXXXXXXXXXXXXooooooooooooooooOOOOOOOOOOOOOOOO@@@@@@@@@@@@@@@@++++++++++++++++................                ################",
"XXXXXXXXXXXXXXXXooooooooooooooooOOOOOOOOOOOOOOOO@@@@@@@@@@@@@@@@++++++++++++++++................                ################",
"XXXXXXXXXXXXXXXXooooooooooooooooOOOOOOOOOOOOOOOO@@@@@@@@@@@@@@@@++++++++++++++++................                ################",
"XXXXXXXXXXXXXXXXooooooooooooooooOOOOOOOOOOOOOOOO@@@@@@@@@@@@@@@@++++++++++++++++................                ################",
"XXXXXXXXXXXXXXXXooooooooooooooooOOOOOOOOOOOOOOOO@@@@@@@@@@@@@@@@++++++++++++++++................                ################",
"XXXXXXXXXXXXXXXXooooooooooooooooOOOOOOOOOOOOOOOO@@@@@@@@@@@@@@@@++++++++++++++++................                ################",
"XXXXXXXXXXXXXXXXooooooooooooooooOOOOOOOOOOOOOOOO@@@@@@@@@@@@@@@@++++++++++++++++................                ################",
"XXXXXXXXXXXXXXXXooooooooooooooooOOOOOOOOOOOOOOOO@@@@@@@@@@@@@@@@++++++++++++++++................                ################",
"XXXXXXXXXXXXXXXXooooooooooooooooOOOOOOOOOOOOOOOO@@@@@@@@@@@@@@@@++++++++++++++++................                ################",
"XXXXXXXXXXXXXXXXooooooooooooooooOOOOOOOOOOOOOOOO@@@@@@@@@@@@@@@@++++++++++++++++................                ################",
"XXXXXXXXXXXXXXXXooooooooooooooooOOOOOOOOOOOOOOOO@@@@@@@@@@@@@@@@++++++++++++++++................                ################",
"XXXXXXXXXXXXXXXXooooooooooooooooOOOOOOOOOOOOOOOO@@@@@@@@@@@@@@@@++++++++++++++++................                ################",
"XXXXXXXXXXXXXXXXooooooooooooooooOOOOOOOOOOOOOOOO@@@@@@@@@@@@@@@@++++++++++++++++................                ################",
"XXXXXXXXXXXXXXXXooooooooooooooooOOOOOOOOOOOOOOOO@@@@@@@@@@@@@@@@++++++++++++++++................                ################",
"XXXXXXXXXXXXXXXXooooooooooooooooOOOOOOOOOOOOOOOO@@@@@@@@@@@@@@@@++++++++++++++++................                ################",
"XXXXXXXXXXXXXXXXooooooooooooooooOOOOOOOOOOOOOOOO@@@@@@@@@@@@@@@@++++++++++++++++................                ################",
"XXXXXXXXXXXXXXXXooooooooooooooooOOOOOOOOOOOOOOOO@@@@@@@@@@@@@@@@++++++++++++++++................                ################"
};
